{"title":"Transformers.Age.of.Extinction.2014.BRRip.480p.x264-VYTO [P2PDL]","uid":11291025,"size":716114615,"categoryP":"video","categoryS":"movies","magnet":"?xt=urn:btih:1b046dd05eb2467ff4cd31e51a424da579962eb0&amp;dn=Transformers.Age.of.Extinction.2014.BRRip.480p.x264-VYTO+%5BP2PDL%5D&amp;tr=udp%3A%2F%2Ftracker.openbittorrent.com%3A80&amp;tr=udp%3A%2F%2Fopen.demonii.com%3A1337&amp;tr=udp%3A%2F%2Ftracker.coppersurfer.tk%3A6969&amp;tr=udp%3A%2F%2Fexodus.desync.com%3A6969","seeders":21,"leechers":7,"uploader":"ValidusVyto","files":-1,"time":1414329030,"description":"Transformers.Age.of.Extinction.2014.BRRip.480p.x264-VYTO\n\n\nGenre: Action | Adventure | Sci-Fi\nIMDb: http://www.imdb.com/title/tt2109248/\n\n\nGeneral\nFormat                         : MPEG-4\nFile size                      : 677 MiB\nDuration                       : 2h 45mn\nOverall bit rate               : 574 Kbps\n\nVideo\nFormat                         : AVC\nBit rate                       : 531 Kbps\nMaximum bit rate               : 2 703 Kbps\nWidth                          : 720 pixels\nHeight                         : 304 pixels\nDisplay aspect ratio           : 2.35:1\nFrame rate mode                : Constant\nFrame rate                     : 23.976 fps\nBit depth                      : 8 bits\nStream size                    : 626 MiB (92%)\nWriting library                : x264 core 142 r2479 dd79a61\n\nAudio\nFormat                         : AAC\nBit rate mode                  : Variable\nBit rate                       : 40.0 Kbps\nChannel(s)                     : 2 channels\nChannel positions              : Front: L R\nSampling rate                  : 48.0 KHz\nStream size                    : 47.2 MiB (7%)\nLanguage                       : English\n\nSubtitle                       : Yes(English)\n\nSource                         : BluRay.720p.x264.DD.5.1-HDWinG\n &lt;a href=&quot;\nhttp://someimage.com/xFbZNtu&quot; rel=&quot;nofollow&quot; target=&quot;_NEW&quot;&gt;\nhttp://someimage.com/xFbZNtu&lt;/a&gt; &lt;a href=&quot;\nhttp://someimage.com/3ffFDz3&quot; rel=&quot;nofollow&quot; target=&quot;_NEW&quot;&gt;\nhttp://someimage.com/3ffFDz3&lt;/a&gt; &lt;a href=&quot;\nhttp://someimage.com/8Ymcv8P&quot; rel=&quot;nofollow&quot; target=&quot;_NEW&quot;&gt;\nhttp://someimage.com/8Ymcv8P&lt;/a&gt; &lt;a href=&quot;\nhttp://someimage.com/a6v1EFa&quot; rel=&quot;nofollow&quot; target=&quot;_NEW&quot;&gt;\nhttp://someimage.com/a6v1EFa&lt;/a&gt; &lt;a href=&quot;\nhttp://someimage.com/3oQ1yfv&quot; rel=&quot;nofollow&quot; target=&quot;_NEW&quot;&gt;\nhttp://someimage.com/3oQ1yfv&lt;/a&gt; &lt;a href=&quot;\nhttp://someimage.com/03tU7Nb&quot; rel=&quot;nofollow&quot; target=&quot;_NEW&quot;&gt;\nhttp://someimage.com/03tU7Nb&lt;/a&gt; &lt;a href=&quot;\nhttp://someimage.com/JfOLQqM&quot; rel=&quot;nofollow&quot; target=&quot;_NEW&quot;&gt;\nhttp://someimage.com/JfOLQqM&lt;/a&gt; &lt;a href=&quot;\nhttp://someimage.com/WekqdP2&quot; rel=&quot;nofollow&quot; target=&quot;_NEW&quot;&gt;\nhttp://someimage.com/WekqdP2&lt;/a&gt; &lt;a href=&quot;\nhttp://someimage.com/bghdfR1&quot; rel=&quot;nofollow&quot; target=&quot;_NEW&quot;&gt;\nhttp://someimage.com/bghdfR1&lt;/a&gt; &lt;a href=&quot;\nhttp://someimage.com/EeV0ACo&quot; rel=&quot;nofollow&quot; target=&quot;_NEW&quot;&gt;\nhttp://someimage.com/EeV0ACo&lt;/a&gt; &lt;a href=&quot;\nhttp://someimage.com/xqqcSmU&quot; rel=&quot;nofollow&quot; target=&quot;_NEW&quot;&gt;\nhttp://someimage.com/xqqcSmU&lt;/a&gt; &lt;a href=&quot;\nhttp://someimage.com/rwjsaF6&quot; rel=&quot;nofollow&quot; target=&quot;_NEW&quot;&gt;\nhttp://someimage.com/rwjsaF6&lt;/a&gt;\n\n----------------------------------------------------------------------------------------------------\n\n\nEncoded using revolutionary 10bit encoding, which enables us to provide you more crispier \nand sharper images at small sizes, just make sure you follow our instructions without a fault.\nRecommend to you to use latest version of VLC player. Install K-Lite Codec Pack or shark007 codecs\nin case of any kind of problem in playback (For non-VLC Media Player users). Alternatively, install\nCore AVC codecs, the fastest decoder that there is coupled with Community Center Codec Pack and play\non Windows Media Player Classic. Check sample to be sure.\nEnjoy!\n\nEncoder Notes: Looking For Early Access To Anything You Can Provide DVDScr, R5, DVDR, BluRay, Direct\nAudio, Music Releases and Seedboxes. We require dedicated servers, so as to do more \nand fast releases of movies.\nIf You Got anything to offer please contact us.\n\nFind us! Support us!","torrent":{"xt":"urn:btih:1b046dd05eb2467ff4cd31e51a424da579962eb0","amp;dn":"Transformers.Age.of.Extinction.2014.BRRip.480p.x264-VYTO+%5BP2PDL%5D","amp;tr":["udp%3A%2F%2Ftracker.openbittorrent.com%3A80","udp%3A%2F%2Fopen.demonii.com%3A1337","udp%3A%2F%2Ftracker.coppersurfer.tk%3A6969","udp%3A%2F%2Fexodus.desync.com%3A6969"],"infoHash":"1b046dd05eb2467ff4cd31e51a424da579962eb0","infoHashBuffer":{"type":"Buffer","data":[27,4,109,208,94,178,70,127,244,205,49,229,26,66,77,165,121,150,46,176]},"announce":[],"urlList":[]}}